# xmcd
#
# Track frame offsets: 
#        150
#        15850
#        38223
#        54703
#        80348
#        94490
#        115265
#        135465
#        154570
#        179410
#        198618
#        214638
#
# Disc length: 3088 seconds
#
# Revision: 2
# Processed by: cddbd v1.5.2PL0 Copyright (c) Steve Scherf et al.
# Submitted via: ExactAudioCopy v0.99pb4
#
DISCID=9b0c0e0c
DTITLE=Garth Webber - Get A Grip On The Blues
DYEAR=1991
DGENRE=Blues
TTITLE0=You're A Bad One
TTITLE1=Hard Rain
TTITLE2=Ain't No Way
TTITLE3=40 Days And 40 Nights
TTITLE4=Little Red Rooster
TTITLE5=Can't Wait For You
TTITLE6=The Bayou
TTITLE7=There's Only One
TTITLE8=I'm So Glad
TTITLE9=Give It Up
TTITLE10=She's Murder
TTITLE11=I Feel Good
EXTD=
EXTT0=
EXTT1=
EXTT2=
EXTT3=
EXTT4=
EXTT5=
EXTT6=
EXTT7=
EXTT8=
EXTT9=
EXTT10=
EXTT11=
PLAYORDER=
